<svg xmlns="http://www.w3.org/2000/svg" viewBox="0 0 512 512"><circle cx="256" cy="256" r="256" fill="#ffda44"/><path fill="#338af3" d="M256 512c77.6 0 147.1-34.5 194-89H62a255.2 255.2 0 0 0 194 89m256-256A256 256 0 1 0 8.8 322.8h494.4c5.7-21.3 8.8-43.7 8.8-66.8M20.3 356.2a255.2 255.2 0 0 0 17.3 33.4h436.8a255.6 255.6 0 0 0 17.3-33.4z"/><path fill="#eee" d="m117.3 161.5-50-22.1 50-22 22-50.1 22.2 50 50 22-50 22.2-22.1 50z"/><path fill="#d80027" d="m139.4 94.9 13.6 30.9 31 13.6-31 13.6-13.6 31-13.6-31-31-13.6 31-13.6z"/></svg>